# xmcd
#
# Track frame offsets: 
#        183
#        23678
#        41415
#        89023
#        112230
#        143745
#        162770
#        189843
#        206700
#        227080
#        256173
#        267688
#        282373
#        326218
#
# Disc length: 4538 seconds
#
# Revision: 1
# Processed by: cddbd v1.5.2PL0 Copyright (c) Steve Scherf et al.
# Submitted via: ExactAudioCopyFreeDBPlugin 1.0
#
DISCID=cd11b80e
DTITLE=Various Artist - Trainspotting
DYEAR=1996
DGENRE=Soundtrack
TTITLE0=Iggy Pop - Lust for Life
TTITLE1=Brian Eno - Deep Blue Day
TTITLE2=Primal Scream - Trainspotting
TTITLE3=Sleeper - Atomic
TTITLE4=New Order - Temptation
TTITLE5=Iggy Pop - Nightclubbing
TTITLE6=Blur - Sing
TTITLE7=Lou Reed - Perfect Day
TTITLE8=Pulp - Mile End
TTITLE9=Bedrock - For What You Dream Of (feat. KYO)
TTITLE10=Elastica - 2:1
TTITLE11=Leftfield - A Final Hit
TTITLE12=Underworld - Born Slippy
TTITLE13=Damon Albarn - Closet Romantic
EXTD=
EXTT0=
EXTT1=
EXTT2=
EXTT3=
EXTT4=
EXTT5=
EXTT6=
EXTT7=
EXTT8=
EXTT9=
EXTT10=
EXTT11=
EXTT12=
EXTT13=
PLAYORDER=
